<svg width="754" height="471" viewBox="0 0 754 471" fill="none" xmlns="http://www.w3.org/2000/svg">
<g clip-path="url(#clip0_452_673)">
<path d="M339.386 110.592C336.791 111.024 333.116 111.241 328.36 111.241C323.604 111.241 320.362 110.449 318.632 108.864C316.902 107.281 316.038 103.841 316.038 98.5471C316.038 93.2536 316.433 87.4385 317.227 81.1C318.02 74.7633 318.903 70.0992 319.875 67.1102C320.848 64.1223 322.775 62.6268 325.657 62.6268C327.603 62.6268 328.72 63.4558 329.009 65.1114C329.009 65.5435 329.009 66.2288 329.009 67.1637C329.009 68.1004 328.792 69.4322 328.36 71.1608C326.63 83.8377 325.765 92.875 325.765 98.2768C325.765 99.5733 325.801 100.654 325.874 101.518C327.171 101.806 328.917 101.95 331.116 101.95C333.313 101.95 336.105 101.734 339.493 101.302C339.637 99.7893 339.709 97.7558 339.709 95.1983C339.709 92.6425 339.745 90.4988 339.817 88.7703C339.888 87.0417 340.141 85.8183 340.574 85.0977C341.006 84.3782 342.249 84.0173 344.302 84.0173C346.357 84.0173 347.654 84.3782 348.194 85.0977C348.734 85.8183 349.004 86.8091 349.004 88.0685C349.004 89.3296 348.896 91.9572 348.68 95.9548C348.464 99.9518 348.356 111.206 348.356 129.714C348.356 132.955 346.77 134.576 343.6 134.576C343.455 134.576 343.312 134.576 343.168 134.576C340.501 134.576 339.169 132.38 339.169 127.986V122.044L339.386 110.592Z" fill="#262626"/>
<path d="M377.432 124.636C380.027 124.636 382.206 123.286 383.972 120.585C385.737 117.885 386.945 114.86 387.593 111.51C388.242 108.161 388.566 103.805 388.566 98.4381C388.566 93.0734 387.844 87.3649 386.404 81.3155C385.682 78.0038 384.583 75.3568 383.107 73.375C381.629 71.3951 379.846 70.4042 377.756 70.4042C374.946 70.4042 372.531 72.0969 370.515 75.4816C366.911 81.604 365.11 89.7417 365.11 99.8965C365.11 106.523 366.353 112.303 368.839 117.236C371.326 122.17 374.19 124.636 377.432 124.636ZM356.031 100.329C356.031 90.679 357.761 82.1798 361.22 74.834C362.949 71.0901 365.29 68.1363 368.245 65.9756C371.2 63.8149 374.586 62.7346 378.406 62.7346C384.026 62.7346 388.621 66.3907 392.187 73.7C395.755 81.0105 397.538 89.6887 397.538 99.7357C397.538 109.783 395.88 118.101 392.566 124.691C389.251 131.281 384.567 134.576 378.515 134.576C363.525 134.575 356.031 123.161 356.031 100.329Z" fill="#262626"/>
<path d="M428.343 110.592C425.748 111.024 422.073 111.241 417.317 111.241C412.562 111.241 409.319 110.449 407.589 108.864C405.859 107.281 404.995 103.841 404.995 98.5471C404.995 93.2536 405.39 87.4385 406.184 81.1C406.977 74.7633 407.86 70.0992 408.833 67.1102C409.805 64.1223 411.733 62.6268 414.615 62.6268C416.561 62.6268 417.677 63.4558 417.966 65.1114C417.966 65.5435 417.966 66.2288 417.966 67.1637C417.966 68.1004 417.749 69.4322 417.317 71.1608C415.587 83.8377 414.723 92.875 414.723 98.2768C414.723 99.5733 414.759 100.654 414.831 101.518C416.128 101.806 417.874 101.95 420.073 101.95C422.27 101.95 425.062 101.734 428.45 101.302C428.594 99.7893 428.667 97.7558 428.667 95.1983C428.667 92.6425 428.702 90.4988 428.775 88.7703C428.846 87.0417 429.099 85.8183 429.531 85.0977C429.963 84.3782 431.207 84.0173 433.26 84.0173C435.314 84.0173 436.611 84.3782 437.151 85.0977C437.692 85.8183 437.962 86.8091 437.962 88.0685C437.962 89.3296 437.854 91.9572 437.637 95.9548C437.421 99.9518 437.313 111.206 437.313 129.714C437.313 132.955 435.728 134.576 432.557 134.576C432.412 134.576 432.269 134.576 432.125 134.576C429.459 134.576 428.126 132.38 428.126 127.986V122.044L428.343 110.592Z" fill="#262626"/>
<path d="M306.177 162.568C306.177 161.76 305.737 161.121 304.858 160.651C303.978 160.182 303.039 159.947 302.04 159.947C301.041 159.947 300.341 160.036 299.942 160.216C299.862 161.395 299.822 162.478 299.822 163.467C299.822 164.456 299.862 165.35 299.942 166.149C300.482 166.209 300.852 166.259 301.051 166.299C301.571 166.359 302.016 166.388 302.386 166.388C302.755 166.388 303.005 166.384 303.135 166.374C303.265 166.364 303.515 166.334 303.884 166.283C304.253 166.234 304.518 166.149 304.679 166.029C304.838 165.909 305.038 165.749 305.278 165.55C305.518 165.35 305.688 165.121 305.788 164.861C306.047 164.142 306.177 163.377 306.177 162.568ZM297.633 174.449C297.493 172.392 297.424 169.61 297.424 166.104C297.424 162.599 297.473 160.327 297.573 159.288C297.674 158.649 298.113 158.224 298.892 158.014C299.672 157.805 300.701 157.7 301.98 157.7C303.858 157.7 305.443 158.105 306.732 158.913C308.02 159.722 308.665 160.916 308.665 162.494C308.665 163.793 308.485 164.876 308.125 165.745C307.766 166.614 307.316 167.258 306.776 167.678C305.897 168.357 304.598 168.696 302.879 168.696C302.139 168.696 301.171 168.597 299.971 168.396C300.071 172.392 300.111 174.909 300.091 175.947C300.071 176.986 299.721 177.505 299.042 177.505C298.602 177.505 298.322 177.426 298.203 177.265C298.082 177.106 298.002 176.991 297.963 176.921C297.923 176.851 297.882 176.746 297.843 176.606C297.803 176.466 297.773 176.351 297.753 176.262C297.733 176.172 297.718 176.037 297.708 175.857C297.698 175.677 297.683 175.538 297.664 175.437C297.644 175.138 297.633 174.808 297.633 174.449Z" fill="#262626"/>
<path d="M316.73 166.239C315.591 166.239 314.741 166.569 314.182 167.228C313.622 167.888 313.342 169.096 313.342 170.854C313.342 173.81 314.141 175.288 315.74 175.288C316.16 175.288 316.625 175.099 317.135 174.719C317.644 174.34 317.999 173.91 318.199 173.431C318.578 172.352 318.769 171.174 318.769 169.895C318.769 168.617 318.613 167.688 318.304 167.109C317.994 166.529 317.469 166.239 316.73 166.239ZM319.848 163.513C320.727 163.513 321.167 164.261 321.167 165.759C321.167 165.919 321.167 166.089 321.167 166.268L321.107 168.366C321.087 169.025 321.076 169.674 321.076 170.313L321.526 177.084C321.526 177.584 321.017 177.833 319.997 177.833C319.937 177.833 319.792 177.833 319.563 177.833C319.332 177.833 319.173 177.744 319.083 177.564C318.994 177.384 318.983 177.164 319.053 176.904C319.123 176.645 319.098 176.355 318.978 176.035C318.058 177.014 316.839 177.504 315.321 177.504C312.503 177.504 311.094 175.326 311.094 170.972C311.094 168.555 311.548 166.728 312.457 165.489C313.366 164.251 314.671 163.631 316.37 163.631C317.169 163.631 317.969 163.772 318.768 164.051C319.028 163.693 319.388 163.513 319.848 163.513Z" fill="#262626"/>
<path d="M331.81 169.939C331.81 168.492 331.595 167.472 331.165 166.883C330.735 166.294 330.06 165.999 329.141 165.999C328.221 165.999 327.482 166.419 326.922 167.258C326.363 168.097 326.083 169.16 326.083 170.449C326.083 171.738 326.347 172.761 326.878 173.52C327.407 174.28 328.221 174.659 329.32 174.659C330.419 174.659 331.129 174.19 331.449 173.25C331.69 172.492 331.81 171.388 331.81 169.939ZM331.84 176.277C331.12 177.116 330.211 177.535 329.111 177.535C328.012 177.535 327.063 177.196 326.264 176.516C324.584 175.218 323.746 173.23 323.746 170.554C323.746 168.457 324.325 166.774 325.485 165.505C326.643 164.237 328.073 163.603 329.771 163.603C331.469 163.603 332.629 164.182 333.248 165.341C333.788 166.359 334.058 167.898 334.058 169.955L333.998 172.411C333.998 173.57 334.052 175.173 334.162 177.22C334.272 179.267 334.327 180.811 334.327 181.85C334.327 183.567 333.902 184.831 333.053 185.64C332.203 186.45 330.909 186.854 329.171 186.854C328.131 186.854 327.073 186.633 325.993 186.194C324.914 185.754 324.374 185.245 324.374 184.666C324.374 184.247 324.488 183.927 324.719 183.708C324.948 183.488 325.214 183.378 325.513 183.378C325.813 183.378 326.488 183.598 327.537 184.038C328.586 184.477 329.341 184.697 329.801 184.697C331.239 184.697 331.959 183.518 331.959 181.161C331.96 178.804 331.919 177.176 331.84 176.277Z" fill="#262626"/>
<path d="M341.042 165.699C340.282 165.699 339.633 166.129 339.093 166.988C338.893 167.287 338.704 167.967 338.524 169.025C341.321 169.025 342.72 168.336 342.72 166.958C342.72 166.119 342.161 165.699 341.042 165.699ZM340.892 163.632C341.952 163.632 342.961 163.943 343.92 164.561C344.88 165.181 345.359 165.945 345.359 166.854C345.359 167.763 344.969 168.642 344.19 169.491C343.411 170.34 342.371 170.854 341.072 171.034C340.513 171.114 339.673 171.154 338.554 171.154C338.774 172.852 339.204 173.971 339.843 174.51C340.042 174.73 340.312 174.84 340.653 174.84C341.892 174.84 342.931 174.446 343.77 173.656C344.61 172.867 345.209 172.473 345.569 172.473C345.729 172.473 345.969 172.623 346.289 172.922C346.608 173.222 346.768 173.502 346.768 173.761C346.768 174.28 346.139 175.03 344.88 176.008C344.32 176.468 343.645 176.853 342.856 177.162C342.066 177.471 341.331 177.626 340.653 177.626C338.914 177.626 337.634 176.508 336.815 174.27C336.295 172.892 336.036 171.374 336.036 169.716C336.036 168.059 336.426 166.63 337.205 165.432C337.984 164.233 339.213 163.632 340.892 163.632Z" fill="#262626"/>
<path d="M356.541 176.576L356.21 164.411C356.21 164.032 356.341 163.722 356.6 163.482C356.86 163.243 357.12 163.123 357.38 163.123C358.019 163.123 358.389 163.393 358.489 163.932C358.568 164.471 358.609 165.031 358.609 165.61C359.688 164.192 361.037 163.483 362.656 163.483C365.134 163.483 366.374 166.309 366.374 171.962C366.374 172.482 366.374 173.265 366.374 174.314C366.374 175.363 366.313 176.127 366.193 176.606C366.053 177.205 365.624 177.505 364.904 177.505C364.425 177.505 364.185 177.186 364.185 176.547L364.215 174.869C364.215 172.552 364.14 170.969 363.99 170.12C363.84 169.271 363.695 168.597 363.555 168.097C363.216 167.019 362.666 166.48 361.907 166.48C360.907 166.48 360.207 166.839 359.808 167.558C359.368 168.337 359.109 169.256 359.029 170.315C358.889 172.172 358.819 174.14 358.819 176.217C358.819 176.617 358.67 176.936 358.369 177.176C358.07 177.416 357.71 177.535 357.29 177.535C356.791 177.534 356.541 177.215 356.541 176.576Z" fill="#262626"/>
<path d="M373.898 165.999C373.058 165.999 372.368 166.439 371.829 167.318C371.289 168.197 371.019 169.126 371.019 170.104C371.019 171.623 371.319 172.781 371.918 173.58C372.519 174.378 373.197 174.778 373.957 174.778C375.316 174.778 376.186 174.19 376.565 173.011C376.725 172.452 376.805 171.753 376.805 170.914C376.806 167.638 375.836 165.999 373.898 165.999ZM374.257 163.543C375.696 163.543 376.88 164.231 377.81 165.61C378.739 166.988 379.203 168.641 379.203 170.569C379.203 172.496 378.728 174.139 377.78 175.498C376.83 176.857 375.571 177.535 374.002 177.535C372.433 177.535 371.169 176.841 370.209 175.452C369.25 174.064 368.771 172.521 368.771 170.823C368.771 168.646 369.21 166.908 370.09 165.61C371.029 164.232 372.418 163.543 374.257 163.543Z" fill="#262626"/>
<path d="M381.782 163.512L383.281 163.542C383.62 163.542 383.81 163.532 383.851 163.512V157.37C383.87 157.031 384.04 156.741 384.36 156.501C384.679 156.261 384.979 156.141 385.259 156.141C385.539 156.141 385.763 156.231 385.934 156.411C386.104 156.59 386.179 156.871 386.159 157.25C386.139 157.629 386.128 159.707 386.128 163.482L389.636 163.362C390.236 163.362 390.535 163.711 390.535 164.41C390.535 164.93 390.38 165.319 390.07 165.579C389.761 165.838 389.431 165.979 389.081 165.998C388.731 166.018 388.386 166.028 388.047 166.028L386.219 165.998C386.219 166.817 386.303 168.435 386.474 170.852C386.643 173.269 386.778 174.833 386.878 175.541C386.978 176.25 386.999 176.71 386.939 176.919C386.878 177.129 386.769 177.274 386.609 177.354C386.349 177.474 385.999 177.533 385.559 177.533C385.12 177.533 384.86 177.294 384.78 176.814C384.38 174.198 384.11 170.603 383.971 166.028C383.791 166.048 383.101 166.058 381.903 166.058C380.703 166.058 380.104 165.709 380.104 165.009C380.103 164.012 380.662 163.512 381.782 163.512Z" fill="#262626"/>
<path d="M402.333 156.517C402.642 156.287 402.912 156.157 403.142 156.127C403.372 156.097 403.901 156.083 404.731 156.083C405.559 156.083 406.244 156.202 406.784 156.442C407.323 156.681 407.593 157.161 407.593 157.88C407.593 158.599 407.303 158.959 406.723 158.959C406.604 158.959 406.264 158.854 405.704 158.644C405.145 158.435 404.785 158.33 404.625 158.33C403.925 158.33 403.506 158.749 403.366 159.588C403.326 159.888 403.306 160.502 403.306 161.431C403.306 162.36 403.306 163.123 403.306 163.723H405.404C406.283 163.763 406.723 164.072 406.723 164.652C406.723 165.491 406.123 165.931 404.924 165.97C404.744 165.99 404.524 166 404.265 166C404.005 166 403.705 165.99 403.366 165.97C403.405 166.769 403.495 168.193 403.636 170.24C403.775 172.287 403.845 174.28 403.845 176.217C403.845 176.617 403.685 176.937 403.366 177.176C403.045 177.416 402.715 177.535 402.376 177.535C401.837 177.535 401.567 177.216 401.567 176.577C401.567 174.779 401.497 173.031 401.357 171.333C401.217 169.636 401.117 167.848 401.057 165.971C399.258 165.971 398.209 165.791 397.909 165.431C397.79 165.292 397.729 165.112 397.729 164.892C397.729 164.373 397.943 164.034 398.374 163.873C398.803 163.714 399.298 163.634 399.858 163.634C400.418 163.634 400.817 163.634 401.057 163.634C401.117 160.379 401.297 158.36 401.597 157.581C401.778 157.101 402.022 156.747 402.333 156.517Z" fill="#262626"/>
<path d="M413.948 165.999C413.108 165.999 412.419 166.439 411.879 167.318C411.339 168.197 411.07 169.126 411.07 170.104C411.07 171.623 411.369 172.781 411.969 173.58C412.569 174.378 413.247 174.778 414.007 174.778C415.366 174.778 416.236 174.19 416.616 173.011C416.775 172.452 416.855 171.753 416.855 170.914C416.856 167.638 415.886 165.999 413.948 165.999ZM414.308 163.543C415.747 163.543 416.931 164.231 417.86 165.61C418.789 166.988 419.254 168.641 419.254 170.569C419.254 172.496 418.779 174.139 417.83 175.498C416.881 176.857 415.621 177.535 414.053 177.535C412.484 177.535 411.22 176.841 410.26 175.452C409.301 174.064 408.822 172.521 408.822 170.823C408.822 168.646 409.261 166.908 410.141 165.61C411.08 164.232 412.469 163.543 414.308 163.543Z" fill="#262626"/>
<path d="M421.532 163.828C421.791 163.598 422.057 163.483 422.327 163.483C422.596 163.483 422.806 163.533 422.956 163.633C423.106 163.733 423.196 163.823 423.226 163.902C423.256 163.982 423.29 164.122 423.331 164.322C423.211 165.88 423.151 167.283 423.151 168.532C423.151 169.78 423.301 171.209 423.601 172.817C423.901 174.424 424.23 175.229 424.59 175.229C425.13 175.229 425.814 174.929 426.643 174.33C427.472 173.73 428.068 173.102 428.427 172.442C428.187 169.565 428.068 167.099 428.068 165.042C428.068 164.622 428.203 164.263 428.472 163.963C428.742 163.663 429.067 163.514 429.447 163.514C430.066 163.514 430.376 163.933 430.376 164.772C430.376 166.19 430.481 168.297 430.69 171.094C430.9 173.89 431.115 175.668 431.335 176.427C431.375 176.588 431.395 176.772 431.395 176.981C431.395 177.191 431.26 177.391 430.991 177.581C430.721 177.77 430.37 177.865 429.941 177.865C429.511 177.865 429.226 177.625 429.087 177.146C429.047 176.746 428.947 176.147 428.787 175.348C427.388 176.807 425.979 177.535 424.56 177.535C423.901 177.535 423.311 177.286 422.791 176.786C422.271 176.287 421.862 175.608 421.562 174.749C421.042 173.091 420.783 171.533 420.783 170.075C420.783 168.617 420.863 166.819 421.022 164.681C421.102 164.342 421.272 164.057 421.532 163.828Z" fill="#262626"/>
<path d="M434.214 176.576L433.884 164.411C433.884 164.032 434.014 163.722 434.274 163.482C434.533 163.243 434.793 163.123 435.053 163.123C435.692 163.123 436.062 163.393 436.162 163.932C436.242 164.471 436.282 165.031 436.282 165.61C437.361 164.192 438.711 163.483 440.329 163.483C442.807 163.483 444.047 166.309 444.047 171.962C444.047 172.482 444.047 173.265 444.047 174.314C444.047 175.363 443.986 176.127 443.867 176.606C443.726 177.205 443.297 177.505 442.578 177.505C442.098 177.505 441.858 177.186 441.858 176.547L441.888 174.869C441.888 172.552 441.813 170.969 441.664 170.12C441.513 169.271 441.368 168.597 441.229 168.097C440.889 167.019 440.339 166.48 439.58 166.48C438.58 166.48 437.881 166.839 437.482 167.558C437.042 168.337 436.782 169.256 436.702 170.315C436.562 172.172 436.493 174.14 436.493 176.217C436.493 176.617 436.343 176.936 436.043 177.176C435.743 177.416 435.384 177.535 434.964 177.535C434.463 177.534 434.214 177.215 434.214 176.576Z" fill="#262626"/>
<path d="M453.953 167.573C453.803 167.144 453.628 166.814 453.429 166.584C453.228 166.355 453.013 166.215 452.784 166.165C452.554 166.116 452.279 166.09 451.959 166.09C451.64 166.09 451.25 166.21 450.791 166.45C450.331 166.69 449.941 167.079 449.622 167.618C448.982 168.697 448.662 169.831 448.662 171.019C448.662 172.207 448.897 173.176 449.367 173.925C449.836 174.674 450.506 175.049 451.375 175.049C452.244 175.049 452.929 174.62 453.429 173.761C453.928 172.902 454.178 171.803 454.178 170.465C454.178 168.966 454.103 168.003 453.953 167.573ZM453.789 163.483L453.758 157.7C453.758 156.622 454.103 156.082 454.793 156.082C455.483 156.082 455.867 156.382 455.947 156.981C455.987 157.24 456.037 158.808 456.097 161.685C456.157 164.561 456.252 167.258 456.382 169.775C456.511 172.292 456.577 174.639 456.577 176.816C456.577 177.415 456.127 177.715 455.228 177.715C454.627 177.715 454.328 177.295 454.328 176.456C453.469 177.135 452.45 177.474 451.271 177.474C449.772 177.474 448.558 176.915 447.628 175.796C446.699 174.678 446.234 173.3 446.234 171.662C446.234 170.024 446.568 168.491 447.239 167.062C447.908 165.635 448.952 164.611 450.371 163.991C451.25 163.612 452.1 163.422 452.919 163.422C453.219 163.423 453.508 163.443 453.789 163.483Z" fill="#262626"/>
<path d="M367.068 266.012C366.208 266.871 364.815 266.871 363.956 266.012L355.241 257.302C354.382 256.443 354.382 255.051 355.241 254.192C356.101 253.333 357.494 253.333 358.354 254.192L367.068 262.902C367.928 263.761 367.928 265.153 367.068 266.012Z" fill="#262626"/>
<path d="M377.44 266.261C376.225 266.261 375.239 265.276 375.239 264.061V251.744C375.239 250.529 376.225 249.544 377.44 249.544C378.655 249.544 379.641 250.529 379.641 251.744V264.061C379.641 265.276 378.655 266.261 377.44 266.261Z" fill="#262626"/>
<path d="M386.932 266.012C386.072 265.153 386.072 263.761 386.932 262.902L395.646 254.192C396.506 253.333 397.899 253.333 398.759 254.192C399.618 255.051 399.618 256.443 398.759 257.302L390.044 266.012C389.184 266.871 387.791 266.871 386.932 266.012Z" fill="#262626"/>
<path d="M367.068 346.884C366.208 346.025 364.815 346.025 363.956 346.884L355.241 355.594C354.382 356.453 354.382 357.846 355.241 358.705C356.101 359.564 357.494 359.564 358.354 358.705L367.068 349.995C367.928 349.136 367.928 347.744 367.068 346.884Z" fill="#262626"/>
<path d="M377.44 346.636C376.225 346.636 375.239 347.621 375.239 348.835V361.153C375.239 362.368 376.225 363.353 377.44 363.353C378.655 363.353 379.641 362.368 379.641 361.153V348.835C379.641 347.621 378.655 346.636 377.44 346.636Z" fill="#262626"/>
<path d="M386.932 346.884C386.072 347.744 386.072 349.136 386.932 349.995L395.646 358.705C396.506 359.564 397.899 359.564 398.759 358.705C399.618 357.846 399.618 356.453 398.759 355.594L390.044 346.884C389.184 346.025 387.791 346.025 386.932 346.884Z" fill="#262626"/>
<path d="M384.255 317.413H363.049V296.807H384.228C385.238 296.807 386.179 296.188 386.487 295.227C387.009 293.598 385.807 292.097 384.255 292.097H363.048V285.326H323.447C318.315 285.326 314.156 289.484 314.156 294.612V294.679C314.156 294.716 314.126 294.746 314.089 294.746H306.57C304.578 294.746 302.964 296.359 302.964 298.349V303.872H249.505C238.364 303.872 229.332 294.844 229.332 283.709V239.843C229.332 225.456 217.662 213.793 203.267 213.793H-13.9512V219.68H203.267C214.409 219.68 223.441 228.708 223.441 239.843V283.709C223.441 298.096 235.11 309.759 249.505 309.759H302.964V315.87C302.964 317.86 304.578 319.473 306.57 319.473H314.155C314.156 319.473 314.157 319.474 314.157 319.475C314.121 324.671 318.324 328.893 323.514 328.893H363.049V322.123H384.228C385.238 322.123 386.179 321.505 386.487 320.543C387.01 318.914 385.808 317.413 384.255 317.413Z" fill="#262626"/>
<path d="M552.323 393.738C541.163 393.738 532.083 384.663 532.083 373.509V329.777C532.083 315.376 520.361 303.66 505.952 303.66H452.559V297.843C452.559 295.853 450.945 294.24 448.954 294.24H441.367V294.106C441.367 288.977 437.207 284.82 432.076 284.82H392.475V328.387H432.076C437.207 328.387 441.367 324.229 441.367 319.101V318.967H448.954C450.945 318.967 452.559 317.354 452.559 315.364V309.547H505.952C517.112 309.547 526.192 318.622 526.192 329.777V373.508C526.192 387.909 537.915 399.625 552.323 399.625H769.475V393.738H552.323V393.738Z" fill="#262626"/>
</g>
<defs>
<clipPath id="clip0_452_673">
<rect width="754" height="471" fill="white"/>
</clipPath>
</defs>
</svg>
