<svg width="89" height="98" viewBox="0 0 89 98" fill="none" xmlns="http://www.w3.org/2000/svg">
<g clip-path="url(#clip0_4272_1313)">
<path d="M83.8736 73.5C83.1097 68.7568 79.2899 62.8412 79.2899 62.8412C79.2899 62.8412 77.6245 64.9273 77.4183 65.9246C77.212 66.922 72.4144 77.6493 70.9629 86.1611C70.7948 87.1813 70.6803 88.133 70.6191 89.0237C76.1895 84.9478 80.7281 79.6322 83.8736 73.5Z" fill="#3A6EA1" stroke="#263238" stroke-linecap="round" stroke-linejoin="round"/>
<path d="M44.5004 97.6193C55.8012 97.6429 66.6766 93.3266 74.8673 85.5673C75.9292 80.748 76.9911 76.0048 77.1133 75.7917C77.3578 75.3501 81.1241 65.8257 79.3517 62.8488C77.5794 59.872 60.6273 51.4287 60.6273 51.4287L53.9199 48.2996C53.9199 48.2996 32.7432 48.8021 31.9182 49C24.9333 51.9692 18.1903 55.4743 11.7499 59.4837C4.30142 64.3715 4.40837 64.5314 3.0791 68.7645C6.18687 77.2229 11.8261 84.5263 19.2342 89.6869C26.6423 94.8475 35.4619 97.6165 44.5004 97.6193Z" fill="#3A6EA1" stroke="#263238" stroke-linecap="round" stroke-linejoin="round"/>
<path d="M44.4999 97.6193C68.8656 97.6193 88.6179 77.9344 88.6179 53.6518C88.6179 29.3692 68.8656 9.68427 44.4999 9.68427C20.1341 9.68427 0.381836 29.3692 0.381836 53.6518C0.381836 77.9344 20.1341 97.6193 44.4999 97.6193Z" stroke="#263238" stroke-linecap="round" stroke-linejoin="round"/>
<path d="M35.9664 42.3915C34.6885 42.4579 33.4506 42.8589 32.3777 43.5539C31.3047 44.2489 30.4345 45.2135 29.8548 46.3505L25.7983 51.383C25.7983 51.383 25.592 51.2079 29.0221 56.248C32.4523 61.2881 40.2522 66.3738 40.2522 66.3738C40.2522 66.3738 41.0161 58.5016 42.6281 59.1335C44.24 59.7654 49.2209 74.4669 49.2209 74.4669C49.2209 74.4669 50.4051 57.4204 53.1247 58.1665C55.8444 58.9127 58.8238 65.7115 58.8238 65.7115C58.8238 65.7115 63.1095 57.2377 62.7046 51.9692C62.2997 46.7007 55.0651 44.2188 55.0651 44.2188C55.0651 44.2188 43.0482 42.0794 35.9664 42.3915Z" fill="white" stroke="#263238" stroke-linecap="round" stroke-linejoin="round"/>
<path d="M56.7227 37.7093L56.7991 49.769C56.7991 49.769 52.9183 60.4201 46.6004 60.245C40.2826 60.0699 33.2695 47.4392 33.2695 47.4392L34.0335 38.5087L56.7227 37.7093Z" fill="#C2C2C2" stroke="#263238" stroke-linecap="round" stroke-linejoin="round"/>
<path d="M34.2021 4.5757C34.2021 4.5757 30.0997 8.59558 29.4962 10.9329C28.8927 13.2702 30.0921 32.4028 31.6124 36.4379C33.1326 40.473 37.2197 47.5078 41.6812 49.8071C46.1427 52.1063 51.4979 49.9974 54.3475 45.8785C57.197 41.7597 58.8013 35.4329 59.252 33.2326C59.7027 31.0323 60.1 11.3136 59.0763 8.154C58.0526 4.99443 50.4208 0.631938 45.4857 0.395922C41.3282 0.309782 37.2938 1.80426 34.2021 4.5757Z" fill="#A8A8A8" stroke="#263238" stroke-linecap="round" stroke-linejoin="round"/>
<path d="M41.001 31.314C41.3903 31.9403 41.9198 32.4682 42.548 32.8565C43.1762 33.2449 43.8861 33.483 44.6221 33.5523C47.2654 33.8949 48.9384 32.1971 49.1523 31.2683" stroke="#263238" stroke-linecap="round" stroke-linejoin="round"/>
<path d="M41.8032 18.8356C41.8032 18.8356 36.9674 19.8939 35.9055 20.2593C34.8437 20.6248 34.2401 18.7366 37.273 17.9144C40.3059 17.0921 43.354 17.0388 41.8032 18.8356Z" fill="#263238" stroke="#263238" stroke-linecap="round" stroke-linejoin="round"/>
<path d="M48.4263 18.8585C48.4263 18.8585 53.2621 19.932 54.3546 20.2974C55.447 20.6628 56.02 18.7747 52.9948 17.9525C49.9695 17.1302 46.8755 17.0617 48.4263 18.8585Z" fill="#263238" stroke="#263238" stroke-linecap="round" stroke-linejoin="round"/>
<path d="M41.2532 24.3705C41.1921 25.2156 40.6344 25.8932 40.0232 25.8171C39.4121 25.741 38.9537 25.0557 39.0225 24.1954C39.0912 23.3351 39.6413 22.6727 40.2524 22.7489C40.8636 22.825 41.3219 23.5255 41.2532 24.3705Z" fill="#263238"/>
<path d="M53.2167 24.3705C53.1479 25.2156 52.5979 25.8932 51.9791 25.8171C51.3603 25.741 50.9172 25.0557 50.9783 24.1954C51.0394 23.3351 51.5971 22.6727 52.2159 22.7489C52.8347 22.825 53.2778 23.5255 53.2167 24.3705Z" fill="#263238"/>
<path d="M43.4913 33.5981C43.4913 33.5981 37.9832 34.0168 37.2575 36.0572C36.5317 38.0976 36.8755 44.7137 38.3805 47.0662C39.8854 49.4188 43.9878 50.8729 46.2338 50.8729C48.4799 50.8729 51.4211 49.1675 52.3454 47.9798C53.3901 46.438 54.0117 44.6505 54.1484 42.7951C54.2859 40.9907 55.0269 36.8414 53.0483 35.1817C51.0696 33.5219 43.4913 33.5981 43.4913 33.5981Z" fill="#263238" stroke="#263238" stroke-linecap="round" stroke-linejoin="round"/>
<path d="M52.1544 36.6967C52.1544 36.6967 48.5028 36.7728 45.8289 36.849C43.1551 36.9251 39.6562 36.7957 39.6562 36.7957C39.6562 36.7957 40.7334 42.8179 45.4852 43.1833C50.2369 43.5488 52.1544 36.6967 52.1544 36.6967Z" fill="#C2C2C2" stroke="#263238" stroke-linecap="round" stroke-linejoin="round"/>
<path d="M39.1221 36.5444C39.1221 36.5444 46.2955 43.5945 52.0404 36.3389" stroke="#263238" stroke-linecap="round" stroke-linejoin="round"/>
<path d="M40.7188 27.6139C40.7188 27.6139 38.6027 29.5553 37.7471 29.7685" stroke="#263238" stroke-linecap="round" stroke-linejoin="round"/>
<path d="M50.5049 28.223C50.5049 28.223 51.9564 29.4563 52.9342 29.5249" stroke="#263238" stroke-linecap="round" stroke-linejoin="round"/>
<path d="M29.6486 23.5483C29.6486 23.5483 27.4561 20.9978 26.3331 22.8707C25.2101 24.7436 26.4477 30.4461 27.7541 31.8013C28.6013 32.648 29.6541 33.2617 30.8099 33.5828L29.6486 23.5483Z" fill="#A8A8A8" stroke="#263238" stroke-linecap="round" stroke-linejoin="round"/>
<path d="M59.8018 22.49C59.8018 22.49 62.4985 20.3202 63.0944 21.6221C63.6903 22.924 63.7208 26.2891 62.6971 28.596C61.9381 30.1055 60.7713 31.3738 59.3281 32.2581L59.8018 22.49Z" fill="#A8A8A8" stroke="#263238" stroke-linecap="round" stroke-linejoin="round"/>
<path d="M19.3203 89.747C19.58 84.4557 18.7855 79.0197 16.0124 75.0227C9.63344 65.8485 5.41644 64.5618 5.41644 64.5618C5.41644 64.5618 4.27816 64.775 2.45996 66.9677C5.4104 76.2036 11.337 84.2108 19.3203 89.747Z" fill="#3A6EA1" stroke="#263238" stroke-linecap="round" stroke-linejoin="round"/>
</g>
<defs>
<clipPath id="clip0_4272_1313">
<rect width="89" height="98" fill="white"/>
</clipPath>
</defs>
</svg>
